<svg width="15" height="15" viewBox="0 0 15 15" fill="none" xmlns="http://www.w3.org/2000/svg">
    <path
        d="M7.44337 3.94945C5.33095 3.94945 3.62705 5.58234 3.62705 7.60676C3.62705 9.63117 5.33095 11.2641 7.44337 11.2641C9.5558 11.2641 11.2597 9.63117 11.2597 7.60676C11.2597 5.58234 9.5558 3.94945 7.44337 3.94945ZM7.44337 9.98448C6.07827 9.98448 4.96227 8.91817 4.96227 7.60676C4.96227 6.29534 6.07495 5.22903 7.44337 5.22903C8.8118 5.22903 9.92448 6.29534 9.92448 7.60676C9.92448 8.91817 8.80848 9.98448 7.44337 9.98448ZM12.3059 3.79984C12.3059 4.27412 11.9074 4.6529 11.4158 4.6529C10.9209 4.6529 10.5257 4.27093 10.5257 3.79984C10.5257 3.32875 10.9242 2.94679 11.4158 2.94679C11.9074 2.94679 12.3059 3.32875 12.3059 3.79984ZM14.8336 4.66563C14.7771 3.52292 14.5047 2.51071 13.6312 1.67676C12.761 0.842802 11.7048 0.581793 10.5124 0.524498C9.28345 0.457654 5.59998 0.457654 4.37105 0.524498C3.18198 0.57861 2.12577 0.839619 1.25223 1.67357C0.378693 2.50753 0.109657 3.51974 0.0498711 4.66245C-0.0198789 5.84017 -0.0198789 9.37016 0.0498711 10.5479C0.106335 11.6906 0.378693 12.7028 1.25223 13.5368C2.12577 14.3707 3.17866 14.6317 4.37105 14.689C5.59998 14.7559 9.28345 14.7559 10.5124 14.689C11.7048 14.6349 12.761 14.3739 13.6312 13.5368C14.5014 12.7028 14.7738 11.6906 14.8336 10.5479C14.9033 9.37016 14.9033 5.84335 14.8336 4.66563ZM13.2459 11.8115C12.9868 12.4354 12.4853 12.9161 11.831 13.1675C10.8512 13.5399 8.52616 13.454 7.44337 13.454C6.36059 13.454 4.03227 13.5368 3.05577 13.1675C2.40476 12.9192 1.90323 12.4386 1.64084 11.8115C1.25223 10.8726 1.34191 8.64443 1.34191 7.60676C1.34191 6.56909 1.25555 4.33778 1.64084 3.40196C1.89991 2.77809 2.40144 2.29745 3.05577 2.04599C4.03559 1.67357 6.36059 1.75952 7.44337 1.75952C8.52616 1.75952 10.8545 1.67676 11.831 2.04599C12.482 2.29427 12.9835 2.77491 13.2459 3.40196C13.6345 4.34096 13.5448 6.56909 13.5448 7.60676C13.5448 8.64443 13.6345 10.8757 13.2459 11.8115Z" />
</svg>