<svg width="17" height="16" viewBox="0 0 17 16" fill="none" xmlns="http://www.w3.org/2000/svg">
    <path
        d="M17.0001 9.83557V15.6104H13.5548V10.2222C13.5548 8.86826 13.0563 7.94478 11.8096 7.94478C10.8577 7.94478 10.2907 8.56774 10.0418 9.16957C9.95084 9.38478 9.92748 9.68452 9.92748 9.98583V15.6104H6.48056C6.48056 15.6104 6.52727 6.48521 6.48056 5.53904H9.92748V6.96652L9.90493 6.99939H9.92748V6.96652C10.3849 6.28173 11.2024 5.30269 13.0329 5.30269C15.3 5.30269 17.0001 6.74269 17.0001 9.83557ZM2.87579 0.684509C1.69756 0.684509 0.926025 1.43581 0.926025 2.42425C0.926025 3.39077 1.67501 4.16478 2.83069 4.16478H2.85324C4.05564 4.16478 4.8022 3.39077 4.8022 2.42425C4.78126 1.43581 4.05564 0.684509 2.87579 0.684509ZM1.13059 15.6104H4.57589V5.53904H1.13059V15.6104Z" />
</svg>