<svg width="16" height="16" viewBox="0 0 16 16" fill="none" xmlns="http://www.w3.org/2000/svg">
    <path
        d="M6.70855 11.824C6.56471 12.0273 6.42852 12.1276 6.29832 12.1276C6.21152 12.1276 6.16213 12.0767 6.14642 11.9759C6.14022 11.955 6.14022 11.8758 6.14022 11.7237V9.08667H5.4917V11.9188C5.4917 12.172 5.51319 12.3427 5.54895 12.4512C5.61363 12.6327 5.75789 12.7176 5.96703 12.7176C6.20553 12.7176 6.45063 12.5736 6.70835 12.2776V12.6684H7.3579V9.08688H6.70855V11.824Z" />
    <path d="M3.13501 8.53838H3.89844V12.6686H4.62012V8.53838H5.3976V7.86176H3.13501V8.53838Z" />
    <path
        d="M7.55407 5.40675C7.76549 5.40675 7.86675 5.23935 7.86675 4.90434V3.38162C7.86675 3.04703 7.76549 2.88025 7.55407 2.88025C7.34244 2.88025 7.24097 3.04703 7.24097 3.38162V4.90434C7.24117 5.23914 7.34244 5.40675 7.55407 5.40675Z" />
    <path
        d="M9.23953 9.04327C9.00103 9.04327 8.77866 9.17388 8.56931 9.4318V7.86176H7.92017V12.6686H8.56931V12.321C8.78589 12.5895 9.00889 12.7178 9.23953 12.7178C9.49807 12.7178 9.67167 12.5818 9.75847 12.3154C9.80166 12.1635 9.82377 11.925 9.82377 11.5937V10.1675C9.82377 9.8286 9.80166 9.59176 9.75847 9.44772C9.67146 9.17926 9.49807 9.04327 9.23953 9.04327ZM9.17484 11.6446C9.17484 11.968 9.07957 12.1276 8.89253 12.1276C8.78589 12.1276 8.6776 12.0767 8.5691 11.9682V9.785C8.6776 9.67815 8.78569 9.62731 8.89253 9.62731C9.07977 9.62731 9.17484 9.79306 9.17484 10.1161V11.6446Z" />
    <path
        d="M11.3061 9.04315C10.975 9.04315 10.7163 9.16529 10.529 9.41061C10.391 9.59144 10.3284 9.87127 10.3284 10.2538V11.5087C10.3284 11.889 10.399 12.1719 10.5369 12.3506C10.7243 12.5951 10.9827 12.7175 11.3224 12.7175C11.6614 12.7175 11.9273 12.5891 12.1071 12.3296C12.1864 12.213 12.2382 12.0799 12.2586 11.9404C12.2644 11.8753 12.2725 11.7311 12.2725 11.5223V11.4273H11.6101C11.6101 11.6877 11.6021 11.8317 11.5961 11.867C11.5591 12.0404 11.4657 12.1272 11.3061 12.1272C11.0833 12.1272 10.975 11.9619 10.975 11.6304V10.9955H12.2727V10.2536C12.2727 9.87085 12.2076 9.59123 12.0718 9.4104C11.8902 9.16509 11.6318 9.04315 11.3061 9.04315ZM11.6238 10.4555H10.975V10.1242C10.975 9.79315 11.0833 9.6274 11.3003 9.6274C11.515 9.6274 11.6238 9.79315 11.6238 10.1242V10.4555Z" />
    <path
        d="M13.696 0.169922H1.70936C0.913696 0.169922 0.262695 0.820922 0.262695 1.61659V13.6033C0.262695 14.3989 0.913696 15.0499 1.70936 15.0499H13.696C14.4917 15.0499 15.1427 14.3989 15.1427 13.6033V1.61659C15.1427 0.820922 14.4917 0.169922 13.696 0.169922ZM9.06257 2.33372H9.71625V4.99807C9.71625 5.15224 9.71625 5.23222 9.72431 5.2533C9.73878 5.35498 9.79003 5.40686 9.87807 5.40686C10.0091 5.40686 10.1469 5.30518 10.2922 5.09975V2.33372H10.9482V5.95246H10.2922V5.55772C10.0312 5.85718 9.78218 6.00268 9.54307 6.00268C9.33185 6.00268 9.18615 5.91691 9.12064 5.73339C9.08447 5.62406 9.06257 5.45067 9.06257 5.19523V2.33372ZM6.58525 3.51338C6.58525 3.1267 6.65118 2.84378 6.79068 2.66088C6.97213 2.4137 7.22757 2.28991 7.55411 2.28991C7.88271 2.28991 8.13773 2.4137 8.31939 2.66088C8.45662 2.84378 8.52296 3.1267 8.52296 3.51338V4.78128C8.52296 5.16568 8.45683 5.45088 8.31939 5.63254C8.13773 5.87909 7.88291 6.00288 7.55411 6.00288C7.22737 6.00288 6.97193 5.87909 6.79068 5.63254C6.65118 5.45088 6.58525 5.16568 6.58525 4.78128V3.51338ZM4.83148 1.0962L5.34794 3.00312L5.84373 1.0962H6.57905L5.70444 3.98582V5.95246H4.97697V3.98582C4.91125 3.63696 4.76576 3.1265 4.53264 2.44925C4.37929 1.99872 4.21954 1.54612 4.0664 1.0962H4.83148ZM12.8845 12.8836C12.7534 13.4547 12.2859 13.8759 11.7238 13.9385C10.3921 14.0873 9.04438 14.0881 7.7027 14.0873C6.36081 14.0881 5.01314 14.0873 3.68158 13.9385C3.11924 13.8756 2.65259 13.4545 2.52136 12.8836C2.33432 12.0702 2.33432 11.1824 2.33432 10.3454C2.33432 9.50754 2.33639 8.62032 2.52363 7.80667C2.65466 7.23586 3.12152 6.81488 3.68386 6.75205C5.01541 6.60284 6.36309 6.60243 7.70497 6.60284C9.04665 6.60243 10.3943 6.60284 11.7261 6.75205C12.288 6.81488 12.7553 7.23586 12.8865 7.80667C13.0736 8.62053 13.0725 9.50754 13.0725 10.3454C13.0727 11.1824 13.0717 12.0702 12.8845 12.8836Z" />
</svg>