<svg width="30" height="31" viewBox="0 0 30 31" fill="none" xmlns="http://www.w3.org/2000/svg">
<path d="M11.4956 8.39364L12.7076 8.02823C13.1076 7.90783 13.5377 7.93704 13.9178 8.11042C14.2978 8.28381 14.6018 8.58952 14.773 8.97053L15.6227 10.8601C15.7702 11.1879 15.8113 11.5537 15.7403 11.9061C15.6692 12.2585 15.4896 12.5797 15.2267 12.8248L13.9334 14.0299C13.76 14.1945 13.8914 14.8358 14.5246 15.9333C15.1585 17.0314 15.6484 17.4656 15.8743 17.398L17.5686 16.8799C17.9121 16.7749 18.2798 16.7799 18.6202 16.8944C18.9607 17.0088 19.2568 17.227 19.467 17.5182L20.6746 19.1919C20.9185 19.5299 21.0314 19.9449 20.9924 20.3599C20.9534 20.7748 20.7651 21.1615 20.4625 21.4481L19.5289 22.3323C19.2276 22.6177 18.8559 22.818 18.4518 22.9129C18.0478 23.0077 17.6258 22.9937 17.2289 22.8722C15.273 22.2734 13.4616 20.4965 11.7703 17.5663C10.0753 14.6318 9.43522 12.1566 9.88135 10.1343C9.97132 9.72684 10.1683 9.35073 10.4521 9.04475C10.7359 8.73878 11.0961 8.51402 11.4956 8.39364Z" fill="#FF9900"/>
<path d="M15 0.461426C12.0333 0.461426 9.13319 1.34116 6.66645 2.98938C4.19972 4.6376 2.27713 6.98028 1.14181 9.72117C0.00649926 12.4621 -0.290551 15.4781 0.288228 18.3878C0.867006 21.2975 2.29562 23.9702 4.3934 26.068C6.49119 28.1658 9.16394 29.5944 12.0737 30.1732C14.9834 30.752 17.9994 30.4549 20.7403 29.3196C23.4811 28.1843 25.8238 26.2617 27.472 23.795C29.1203 21.3282 30 18.4281 30 15.4614C30 13.4916 29.612 11.5411 28.8582 9.72117C28.1044 7.90129 26.9995 6.2477 25.6066 4.85482C24.2137 3.46194 22.5601 2.35705 20.7403 1.60323C18.9204 0.849412 16.9698 0.461426 15 0.461426ZM15 27.4614C12.6266 27.4614 10.3066 26.7576 8.33316 25.4391C6.35977 24.1205 4.8217 22.2463 3.91345 20.0536C3.0052 17.8609 2.76756 15.4481 3.23058 13.1203C3.69361 10.7926 4.83649 8.65437 6.51472 6.97614C8.19295 5.29791 10.3312 4.15502 12.6589 3.692C14.9867 3.22898 17.3995 3.46662 19.5922 4.37487C21.7849 5.28312 23.6591 6.82119 24.9776 8.79458C26.2962 10.768 27 13.088 27 15.4614C27 18.644 25.7357 21.6963 23.4853 23.9467C21.2348 26.1971 18.1826 27.4614 15 27.4614Z" fill="#FF9900"/>
</svg>
