<svg width="20" height="22" viewBox="0 0 20 22" fill="none" xmlns="http://www.w3.org/2000/svg">
    <path
        d="M9.029 1.71295C9.32605 1.54799 9.66022 1.46143 10 1.46143C10.3398 1.46143 10.674 1.54799 10.971 1.71295L18.486 5.88695C18.6418 5.97359 18.7716 6.10031 18.862 6.25398C18.9524 6.40765 19 6.58268 19 6.76095V14.996C18.9999 15.3526 18.9045 15.7027 18.7235 16.0101C18.5426 16.3174 18.2828 16.5708 17.971 16.744L10.971 20.634C10.674 20.7989 10.3398 20.8855 10 20.8855C9.66022 20.8855 9.32605 20.7989 9.029 20.634L2.029 16.744C1.71736 16.5709 1.45763 16.3177 1.27671 16.0105C1.0958 15.7034 1.00026 15.3534 1 14.997V6.76095C0.999993 6.58268 1.04764 6.40765 1.13802 6.25398C1.22839 6.10031 1.3582 5.97359 1.514 5.88695L9.03 1.71295H9.029Z"
        stroke="black" stroke-width="1.5" stroke-linecap="round" stroke-linejoin="round" />
    <path d="M10 11.1729V20.6729M1 6.17294L10 11.1729L1 6.17294ZM10 11.1729L19 6.17294L10 11.1729Z" stroke="black"
        stroke-width="1.5" stroke-linejoin="round" />
    <path d="M5.5 8.67297L14.5 3.67297" stroke="black" stroke-width="1.5" stroke-linecap="round"
        stroke-linejoin="round" />
    <path d="M4 11.5009L7 13.1729" stroke="black" stroke-width="1.5" stroke-linecap="round" stroke-linejoin="round" />
</svg>