<svg width="21" height="21" viewBox="0 0 21 21" fill="none" xmlns="http://www.w3.org/2000/svg">
    <path
        d="M7.8569 19.4613C8.3303 19.4613 8.71405 19.0776 8.71405 18.6042C8.71405 18.1308 8.3303 17.747 7.8569 17.747C7.38351 17.747 6.99976 18.1308 6.99976 18.6042C6.99976 19.0776 7.38351 19.4613 7.8569 19.4613Z"
        stroke="black" stroke-width="1.5" stroke-linecap="round" stroke-linejoin="round" />
    <path
        d="M17.2856 19.4613C17.759 19.4613 18.1428 19.0776 18.1428 18.6042C18.1428 18.1308 17.759 17.747 17.2856 17.747C16.8122 17.747 16.4285 18.1308 16.4285 18.6042C16.4285 19.0776 16.8122 19.4613 17.2856 19.4613Z"
        stroke="black" stroke-width="1.5" stroke-linecap="round" stroke-linejoin="round" />
    <path
        d="M1 1.46143H4.4286L6.72576 12.9387C6.80414 13.3333 7.01882 13.6878 7.33223 13.9401C7.64563 14.1923 8.03779 14.3264 8.44005 14.3187H16.7715C17.1738 14.3264 17.566 14.1923 17.8794 13.9401C18.1928 13.6878 18.4075 13.3333 18.4858 12.9387L19.8573 5.74717H5.28575"
        stroke="black" stroke-width="1.5" stroke-linecap="round" stroke-linejoin="round" />
</svg>