<svg width="30" height="31" viewBox="0 0 30 31" fill="none" xmlns="http://www.w3.org/2000/svg">
<path d="M22.5 13.2509C22.5001 13.1363 22.4667 13.0238 22.4035 12.9256L20.5749 10.0741C20.4544 9.88764 20.2847 9.73337 20.0821 9.62607C19.8795 9.51878 19.6508 9.46208 19.4179 9.46143L12.082 9.46143C11.6109 9.46143 11.1674 9.69637 10.9251 10.0747L9.09653 12.9256C9.03331 13.0238 8.99994 13.1363 9 13.2509C9 13.8856 9.26055 14.4597 9.675 14.9044L9.675 20.8298C9.675 20.9973 9.74612 21.158 9.8727 21.2764C9.99929 21.3949 10.171 21.4614 10.35 21.4614L15.75 21.4614C15.929 21.4614 16.1007 21.3949 16.2273 21.2764C16.3539 21.158 16.425 20.9973 16.425 20.8298L16.425 17.6719L19.125 17.6719L19.125 20.8298C19.125 20.9973 19.1961 21.158 19.3227 21.2764C19.4493 21.3949 19.621 21.4614 19.8 21.4614L21.15 21.4614C21.329 21.4614 21.5007 21.3949 21.6273 21.2764C21.7539 21.158 21.825 20.9973 21.825 20.8298L21.825 14.9044C22.2394 14.4597 22.5 13.8856 22.5 13.2509ZM21.1392 13.4094C21.0977 13.7144 20.9388 13.9948 20.6923 14.1981C20.4458 14.4014 20.1286 14.5138 19.8 14.5141C19.0555 14.5141 18.45 13.9475 18.45 13.2509C18.45 13.208 18.4331 13.1701 18.4237 13.1296L18.4372 13.1271L17.9235 10.7246L19.4179 10.7246L21.1392 13.4094ZM14.4047 13.292L14.9528 10.7246L16.5465 10.7246L17.0953 13.292C17.0716 13.9696 16.479 14.5141 15.75 14.5141C15.021 14.5141 14.4283 13.9696 14.4047 13.292ZM12.082 10.7246L13.5765 10.7246L13.0635 13.1271L13.077 13.1296C13.0669 13.1701 13.05 13.208 13.05 13.2509C13.05 13.9475 12.4445 14.5141 11.7 14.5141C11.3714 14.5138 11.0542 14.4014 10.8077 14.1981C10.5612 13.9948 10.4023 13.7144 10.3608 13.4094L12.082 10.7246ZM14.4 18.3035H11.7L11.7 16.4088L14.4 16.4088L14.4 18.3035Z" fill="#FF9900"/>
<path d="M15 0.461426C12.0333 0.461426 9.13319 1.34116 6.66645 2.98938C4.19972 4.6376 2.27713 6.98028 1.14181 9.72117C0.00649926 12.4621 -0.290551 15.4781 0.288228 18.3878C0.867006 21.2975 2.29562 23.9702 4.3934 26.068C6.49119 28.1658 9.16394 29.5944 12.0737 30.1732C14.9834 30.752 17.9994 30.4549 20.7403 29.3196C23.4811 28.1843 25.8238 26.2617 27.472 23.795C29.1203 21.3282 30 18.4281 30 15.4614C30 13.4916 29.612 11.5411 28.8582 9.72117C28.1044 7.90129 26.9995 6.2477 25.6066 4.85482C24.2137 3.46194 22.5601 2.35705 20.7403 1.60323C18.9204 0.849412 16.9698 0.461426 15 0.461426ZM15 27.4614C12.6266 27.4614 10.3066 26.7576 8.33316 25.4391C6.35977 24.1205 4.8217 22.2463 3.91345 20.0536C3.0052 17.8609 2.76756 15.4481 3.23058 13.1203C3.69361 10.7926 4.83649 8.65437 6.51472 6.97614C8.19295 5.29791 10.3312 4.15502 12.6589 3.692C14.9867 3.22898 17.3995 3.46662 19.5922 4.37487C21.7849 5.28312 23.6591 6.82119 24.9776 8.79458C26.2962 10.768 27 13.088 27 15.4614C27 18.644 25.7357 21.6963 23.4853 23.9467C21.2348 26.1971 18.1826 27.4614 15 27.4614Z" fill="#FF9900"/>
</svg>
