<svg width="30" height="31" viewBox="0 0 30 31" fill="none" xmlns="http://www.w3.org/2000/svg">
    <path
        d="M15 0.461426C12.0333 0.461426 9.13319 1.34116 6.66645 2.98938C4.19972 4.6376 2.27713 6.98028 1.14181 9.72117C0.00649926 12.4621 -0.290551 15.4781 0.288228 18.3878C0.867006 21.2975 2.29562 23.9702 4.3934 26.068C6.49119 28.1658 9.16394 29.5944 12.0737 30.1732C14.9834 30.752 17.9994 30.4549 20.7403 29.3196C23.4811 28.1843 25.8238 26.2617 27.472 23.795C29.1203 21.3282 30 18.4281 30 15.4614C30 13.4916 29.612 11.5411 28.8582 9.72117C28.1044 7.90129 26.9995 6.2477 25.6066 4.85482C24.2137 3.46194 22.5601 2.35705 20.7403 1.60323C18.9204 0.849412 16.9698 0.461426 15 0.461426ZM15 27.4614C12.6266 27.4614 10.3066 26.7576 8.33316 25.4391C6.35977 24.1205 4.8217 22.2463 3.91345 20.0536C3.0052 17.8609 2.76756 15.4481 3.23058 13.1203C3.69361 10.7926 4.83649 8.65437 6.51472 6.97614C8.19295 5.29791 10.3312 4.15502 12.6589 3.692C14.9867 3.22898 17.3995 3.46662 19.5922 4.37487C21.7849 5.28312 23.6591 6.82119 24.9776 8.79458C26.2962 10.768 27 13.088 27 15.4614C27 18.644 25.7357 21.6963 23.4853 23.9467C21.2348 26.1971 18.1826 27.4614 15 27.4614Z"
        fill="#FF9900" />
    <path
        d="M15 6.46153C13.6076 6.46153 12.2723 7.01465 11.2877 7.99922C10.3031 8.98378 9.75 10.3191 9.75 11.7115C9.75 12.1093 9.90804 12.4909 10.1893 12.7722C10.4706 13.0535 10.8522 13.2115 11.25 13.2115C11.6478 13.2115 12.0294 13.0535 12.3107 12.7722C12.592 12.4909 12.75 12.1093 12.75 11.7115C12.75 11.2665 12.882 10.8315 13.1292 10.4615C13.3764 10.0915 13.7278 9.80309 14.139 9.6328C14.5501 9.4625 15.0025 9.41794 15.439 9.50476C15.8754 9.59158 16.2763 9.80587 16.591 10.1205C16.9057 10.4352 17.1199 10.8361 17.2068 11.2726C17.2936 11.709 17.249 12.1614 17.0787 12.5726C16.9084 12.9837 16.62 13.3351 16.25 13.5823C15.88 13.8296 15.445 13.9615 15 13.9615C14.6022 13.9615 14.2206 14.1196 13.9393 14.4009C13.658 14.6822 13.5 15.0637 13.5 15.4615V18.4615C13.5 18.8593 13.658 19.2409 13.9393 19.5222C14.2206 19.8035 14.6022 19.9615 15 19.9615C15.3978 19.9615 15.7794 19.8035 16.0607 19.5222C16.342 19.2409 16.5 18.8593 16.5 18.4615V16.7215C17.7122 16.3675 18.7555 15.5873 19.4377 14.5247C20.12 13.4621 20.3951 12.1886 20.2124 10.9391C20.0297 9.68962 19.4016 8.54826 18.4437 7.72541C17.4858 6.90256 16.2628 6.45369 15 6.46153Z"
        fill="#FF9900" />
    <path
        d="M15 24.4614C15.8284 24.4614 16.5 23.7899 16.5 22.9614C16.5 22.133 15.8284 21.4614 15 21.4614C14.1716 21.4614 13.5 22.133 13.5 22.9614C13.5 23.7899 14.1716 24.4614 15 24.4614Z"
        fill="#FF9900" />
</svg>