<svg width="25" height="19" viewBox="0 0 24 25" fill="none" xmlns="http://www.w3.org/2000/svg">
    <path
        d="M20.1212 18.3583C19.679 17.311 19.0374 16.3598 18.2321 15.5575C17.4292 14.7529 16.4781 14.1114 15.4313 13.6685C15.4219 13.6638 15.4126 13.6614 15.4032 13.6567C16.8633 12.6021 17.8126 10.8841 17.8126 8.9458C17.8126 5.73486 15.211 3.1333 12.0001 3.1333C8.78912 3.1333 6.18756 5.73486 6.18756 8.9458C6.18756 10.8841 7.13678 12.6021 8.59693 13.6591C8.58756 13.6638 8.57818 13.6661 8.56881 13.6708C7.51881 14.1138 6.57662 14.7489 5.76803 15.5599C4.96344 16.3628 4.32194 17.3139 3.87896 18.3606C3.44378 19.3855 3.20908 20.4842 3.18756 21.5974C3.18693 21.6224 3.19132 21.6473 3.20046 21.6706C3.20961 21.6938 3.22332 21.7151 3.24079 21.733C3.25826 21.7509 3.27915 21.7651 3.30221 21.7748C3.32527 21.7846 3.35004 21.7896 3.37506 21.7896H4.78131C4.88443 21.7896 4.96647 21.7075 4.96881 21.6067C5.01568 19.7974 5.74225 18.1028 7.02662 16.8185C8.35553 15.4896 10.1204 14.7583 12.0001 14.7583C13.8797 14.7583 15.6446 15.4896 16.9735 16.8185C18.2579 18.1028 18.9844 19.7974 19.0313 21.6067C19.0337 21.7099 19.1157 21.7896 19.2188 21.7896H20.6251C20.6501 21.7896 20.6749 21.7846 20.6979 21.7748C20.721 21.7651 20.7419 21.7509 20.7593 21.733C20.7768 21.7151 20.7905 21.6938 20.7997 21.6706C20.8088 21.6473 20.8132 21.6224 20.8126 21.5974C20.7891 20.4771 20.5571 19.3872 20.1212 18.3583V18.3583ZM12.0001 12.9771C10.9243 12.9771 9.91178 12.5575 9.15006 11.7958C8.38834 11.0341 7.96881 10.0216 7.96881 8.9458C7.96881 7.87002 8.38834 6.85752 9.15006 6.0958C9.91178 5.33408 10.9243 4.91455 12.0001 4.91455C13.0758 4.91455 14.0883 5.33408 14.8501 6.0958C15.6118 6.85752 16.0313 7.87002 16.0313 8.9458C16.0313 10.0216 15.6118 11.0341 14.8501 11.7958C14.0883 12.5575 13.0758 12.9771 12.0001 12.9771Z"
        fill="black" />
</svg>